<svg width="12" height="10" viewBox="0 0 12 10" fill="none" xmlns="http://www.w3.org/2000/svg">
<path d="M0 1.40039H2.08002" stroke="#D8D8D8" stroke-width="0.5" stroke-miterlimit="10"/>
<path d="M4.29688 1.40039H11.1968" stroke="#D8D8D8" stroke-width="0.5" stroke-miterlimit="10"/>
<path d="M3.22815 2.54999C3.86328 2.54999 4.37811 2.03512 4.37811 1.39999C4.37811 0.764866 3.86328 0.25 3.22815 0.25C2.59302 0.25 2.07812 0.764866 2.07812 1.39999C2.07812 2.03512 2.59302 2.54999 3.22815 2.54999Z" stroke="#D8D8D8" stroke-width="0.5" stroke-miterlimit="10"/>
<path d="M0 4.69043H6.90002" stroke="#D8D8D8" stroke-width="0.5" stroke-miterlimit="10"/>
<path d="M9.13281 4.69043H11.2028" stroke="#D8D8D8" stroke-width="0.5" stroke-miterlimit="10"/>
<path d="M8.04846 5.84006C8.68359 5.84006 9.19843 5.32516 9.19843 4.69003C9.19843 4.05491 8.68359 3.54004 8.04846 3.54004C7.41333 3.54004 6.89844 4.05491 6.89844 4.69003C6.89844 5.32516 7.41333 5.84006 8.04846 5.84006Z" stroke="#D8D8D8" stroke-width="0.5" stroke-miterlimit="10"/>
<path d="M0 7.98047H4.15002" stroke="#D8D8D8" stroke-width="0.5" stroke-miterlimit="10"/>
<path d="M6.36719 7.98047H11.1971" stroke="#D8D8D8" stroke-width="0.5" stroke-miterlimit="10"/>
<path d="M5.29846 9.13007C5.93359 9.13007 6.44843 8.6152 6.44843 7.98007C6.44843 7.34494 5.93359 6.83008 5.29846 6.83008C4.66333 6.83008 4.14844 7.34494 4.14844 7.98007C4.14844 8.6152 4.66333 9.13007 5.29846 9.13007Z" stroke="#D8D8D8" stroke-width="0.5" stroke-miterlimit="10"/>
</svg>
