<svg width="9" height="8" viewBox="0 0 9 8" fill="none" xmlns="http://www.w3.org/2000/svg">
<path d="M6.53998 0C6.53998 0 6.50999 0 6.48999 0C5.48999 0.02 4.84998 0.510046 4.47998 1.11005C4.11998 0.510046 3.47 0.02 2.47 0C2.45 0 2.43998 0 2.41998 0C1.74998 0 1.13998 0.27001 0.699982 0.76001C0.239982 1.27001 0 1.99003 0 2.84003C0 4.50003 1.32997 5.52 2.62997 6.5C3.12997 6.88 3.64 7.27001 4.09 7.70001L4.10999 7.73004C4.19999 7.84004 4.32999 7.90003 4.45999 7.91003H4.47H4.47998C4.61998 7.91003 4.74999 7.84004 4.82999 7.73004L4.84998 7.70001C5.29998 7.27001 5.81 6.88 6.31 6.5C7.6 5.52 8.93997 4.50003 8.93997 2.84003C8.93997 1.18003 7.94999 0 6.51999 0H6.53998ZM6.5 5.73004C5.85 6.24004 5.12998 6.74003 4.50998 7.34003C4.49998 7.35003 4.48998 7.35999 4.47998 7.37C4.47998 7.37 4.45998 7.35003 4.44998 7.34003C3.61998 6.54003 2.61998 5.91003 1.84998 5.22003C1.45998 4.88003 1.12998 4.52001 0.889984 4.14001C0.659984 3.75001 0.519989 3.33003 0.519989 2.84003C0.519989 2.07003 0.739996 1.49004 1.09 1.10004C1.44 0.710037 1.89999 0.51001 2.42999 0.51001H2.47C3.06 0.52001 3.48 0.730029 3.78 1.03003C4.08 1.33003 4.24998 1.72004 4.31998 2.10004C4.32998 2.18004 4.39999 2.24005 4.48999 2.24005C4.57999 2.24005 4.63997 2.18004 4.65997 2.10004C4.71997 1.73004 4.89998 1.33003 5.19998 1.03003C5.49998 0.730029 5.91998 0.52001 6.50998 0.51001H6.54999C7.07999 0.51001 7.54998 0.710037 7.88998 1.10004C8.22998 1.49004 8.45999 2.07003 8.45999 2.84003C8.45999 3.33003 8.32 3.75001 8.09 4.14001C7.74 4.72001 7.15998 5.23004 6.50998 5.73004H6.5Z" fill="#A5A5A5"/>
</svg>
