<svg width="11" height="9" viewBox="0 0 11 9" fill="none" xmlns="http://www.w3.org/2000/svg">
<path d="M2.98285 2.91016C2.65285 2.91016 2.38281 3.18016 2.38281 3.51016C2.38281 3.84016 2.65285 4.11017 2.98285 4.11017C3.31285 4.11017 3.58282 3.84016 3.58282 3.51016C3.58282 3.18016 3.31285 2.91016 2.98285 2.91016Z" fill="#D8D8D8"/>
<path d="M5.37347 2.91016C5.04347 2.91016 4.77344 3.18016 4.77344 3.51016C4.77344 3.84016 5.04347 4.11017 5.37347 4.11017C5.70347 4.11017 5.97345 3.84016 5.97345 3.51016C5.97345 3.18016 5.70347 2.91016 5.37347 2.91016Z" fill="#D8D8D8"/>
<path d="M7.74847 2.91016C7.41847 2.91016 7.14844 3.18016 7.14844 3.51016C7.14844 3.84016 7.41847 4.11017 7.74847 4.11017C8.07847 4.11017 8.34845 3.84016 8.34845 3.51016C8.34845 3.18016 8.07847 2.91016 7.74847 2.91016Z" fill="#D8D8D8"/>
<path d="M10.73 3.45001C10.73 2.53001 10.36 1.66001 9.70996 1.01001C9.05996 0.36001 8.19996 0 7.26996 0H3.45996C1.54996 0 0 1.55002 0 3.46002C0 5.37002 1.54996 6.92001 3.45996 6.92001H6.59998C6.59998 6.92001 6.68 6.94002 6.69 6.96002C6.72 7.00002 6.70995 7.06002 6.69995 7.08002C6.67995 7.15002 6.62997 7.25 6.52997 7.41C6.44997 7.54 6.38 7.64 6.37 7.66C6.25999 7.82 6.22996 7.95001 6.26996 8.04001C6.29996 8.10001 6.36999 8.14 6.48999 8.16C6.52999 8.16 6.57995 8.16 6.63995 8.16C6.66995 8.16 6.68997 8.16 6.71997 8.16C6.95997 8.14 7.28999 8.10002 7.67999 7.99002C8.23999 7.82002 9.04 7.46 9.69 6.72C10.38 5.93 10.74 4.82 10.74 3.53V3.45001H10.73ZM9.65997 5.61002C9.31997 6.29002 8.78 6.81 8.06 7.16C7.82 7.28 7.55998 7.37002 7.28998 7.43002L7.21997 7.45001L7.26996 7.35001C7.26996 7.35001 7.29995 7.28002 7.31995 7.24002C7.34995 7.16002 7.37 7.08 7.37 6.97C7.37 6.88 7.35 6.79002 7.31 6.71002C7.25 6.58002 7.12999 6.46001 6.98999 6.39001C6.83999 6.32001 6.66996 6.28 6.45996 6.28H3.45996C2.70996 6.28 1.99996 5.99001 1.45996 5.45001C0.929961 4.92001 0.629944 4.21001 0.629944 3.45001C0.629944 2.69001 0.919961 1.99001 1.45996 1.45001C1.98996 0.920012 2.69996 0.620026 3.45996 0.620026H7.26996C8.01996 0.620026 8.72995 0.910012 9.25995 1.45001C9.78995 1.98001 10.09 2.69001 10.09 3.45001V3.52002C10.09 4.32002 9.93996 5.02001 9.64996 5.60001L9.65997 5.61002Z" fill="#D8D8D8"/>
</svg>
