<svg width="9" height="8" viewBox="0 0 9 8" fill="none" xmlns="http://www.w3.org/2000/svg">
<path d="M6.22003 0C6.22003 0 6.19004 0 6.17004 0C5.22004 0.02 4.61001 0.489988 4.26001 1.04999C3.92001 0.479988 3.30004 0.01 2.35004 0C2.33004 0 2.32005 0 2.30005 0C1.66005 0 1.08003 0.260001 0.660034 0.720001C0.230034 1.21 0 1.89001 0 2.70001C0 4.28001 1.27 5.24999 2.5 6.17999C2.97 6.53999 3.46001 6.91001 3.89001 7.32001L3.91003 7.35001C3.99003 7.45001 4.12 7.50999 4.25 7.51999H4.26001H4.27002C4.40002 7.51999 4.52005 7.46001 4.61005 7.35001L4.63 7.32001C5.05 6.91001 5.54002 6.53999 6.02002 6.17999C7.25002 5.24999 8.52002 4.28001 8.52002 2.70001C8.52002 1.12001 7.57003 0 6.22003 0ZM6.17999 5.45001C5.55999 5.93001 4.88004 6.41001 4.29004 6.98001C4.28004 6.99001 4.27001 7.00001 4.26001 7.01001C4.26001 7.01001 4.24004 6.99001 4.23004 6.98001C3.44004 6.22001 2.49 5.62 1.75 4.97C1.38 4.64 1.06003 4.31 0.840027 3.94C0.620027 3.57 0.48999 3.16999 0.48999 2.70999C0.48999 1.97999 0.700029 1.41999 1.03003 1.04999C1.36003 0.679988 1.80005 0.48999 2.30005 0.48999H2.34003C2.90003 0.49999 3.30003 0.700011 3.59003 0.980011C3.87003 1.26001 4.04004 1.63999 4.10004 1.98999C4.11004 2.06999 4.18001 2.12 4.26001 2.12C4.34001 2.12 4.41004 2.05999 4.42004 1.98999C4.48004 1.62999 4.64999 1.26001 4.92999 0.980011C5.21999 0.700011 5.61999 0.49999 6.17999 0.48999H6.22003C6.72003 0.48999 7.16999 0.679988 7.48999 1.04999C7.81999 1.41999 8.03003 1.96999 8.03003 2.70999C8.03003 3.17999 7.89999 3.57 7.67999 3.94C7.34999 4.49 6.79999 4.97001 6.17999 5.45001Z" fill="#D8D8D8"/>
</svg>
