<svg width="12" height="7" viewBox="0 0 12 7" fill="none" xmlns="http://www.w3.org/2000/svg">
<path d="M5.54999 6.65979C3.78999 6.65979 2.39002 5.90978 1.71002 5.45978C0.920022 4.93978 0 4.06978 0 3.33978C0 2.19978 2.35997 0.00976562 5.58997 0.00976562C9.19997 0.00976562 11.18 2.56977 11.18 3.41977C11.18 4.43977 8.34998 6.65979 5.53998 6.65979H5.54999ZM5.59998 0.829773C2.67998 0.829773 0.830017 2.83978 0.830017 3.33978C0.830017 3.83978 2.89999 5.83978 5.54999 5.83978C8.19999 5.83978 10.26 3.84979 10.37 3.40979C10.33 3.02979 8.79998 0.819794 5.59998 0.819794V0.829773Z" fill="#D8D8D8"/>
<path d="M5.54999 5.12979C6.5441 5.12979 7.34998 4.32389 7.34998 3.32977C7.34998 2.33566 6.5441 1.52979 5.54999 1.52979C4.55588 1.52979 3.75 2.33566 3.75 3.32977C3.75 4.32389 4.55588 5.12979 5.54999 5.12979Z" fill="#D8D8D8"/>
<path d="M5.54877 6.66C3.71877 6.66 2.21875 5.16999 2.21875 3.32999C2.21875 1.48999 3.70877 0 5.54877 0C7.38877 0 8.87878 1.48999 8.87878 3.32999C8.87878 5.16999 7.38877 6.66 5.54877 6.66ZM5.54877 0.829987C4.16877 0.829987 3.03876 1.95 3.03876 3.34C3.03876 4.73 4.15877 5.85001 5.54877 5.85001C6.93877 5.85001 8.05878 4.73 8.05878 3.34C8.05878 1.95 6.93877 0.829987 5.54877 0.829987Z" fill="#D8D8D8"/>
</svg>
