<svg width="15" height="17" viewBox="0 0 15 17" fill="none" xmlns="http://www.w3.org/2000/svg">
<path d="M7.12 16.46L14.25 12.34V4.11L7.12 0L0 4.11V12.34" fill="#D84800"/>
<path d="M4.72095 4.64977C5.10095 4.57977 5.95097 4.50977 6.74097 4.50977C7.72097 4.50977 8.25096 4.59977 8.73096 4.83977C9.21096 5.05977 9.59094 5.49976 9.59094 6.13976C9.59094 6.69976 9.25097 7.22976 8.49097 7.48976V7.50977C9.22097 7.69977 9.81091 8.23976 9.81091 9.09976C9.81091 9.70976 9.51093 10.1798 9.08093 10.4998C8.58093 10.8598 7.7609 11.0598 6.4209 11.0598C5.6209 11.0598 5.05094 11.0098 4.71094 10.9598V4.65976L4.72095 4.64977ZM6.22095 7.07976H6.76086C7.63086 7.07976 8.06091 6.77976 8.06091 6.31976C8.06091 5.82976 7.64092 5.60976 6.94092 5.60976C6.56092 5.60976 6.36096 5.62976 6.23096 5.65976V7.08977L6.22095 7.07976ZM6.22095 9.91975C6.38095 9.94975 6.58085 9.94977 6.87085 9.94977C7.58085 9.94977 8.21094 9.70975 8.21094 9.02975C8.21094 8.38975 7.59089 8.15976 6.79089 8.15976H6.22095V9.92976V9.91975Z" fill="#F2F2F2"/>
</svg>
