<svg width="104" height="16" viewBox="0 0 104 16" fill="none" xmlns="http://www.w3.org/2000/svg">
<path d="M0 0.0498047H4.97998V1.7198H1.92041V5.34979H4.79004V6.95979H1.92041V12.1898H0V0.0498047Z" fill="black"/>
<path d="M13.5498 9.63992C13.5498 10.5899 13.5896 11.4399 13.6196 12.1899H11.9497L11.8398 11.2699H11.7998C11.4598 11.7899 10.7598 12.3299 9.83984 12.3299C8.22984 12.3299 7.58984 11.1199 7.58984 8.83992V3.41992H9.50977V8.59991C9.50977 9.84991 9.73953 10.7199 10.5195 10.7199C11.1095 10.7199 11.4095 10.2099 11.4995 9.85992C11.5695 9.65992 11.6099 9.38991 11.6099 9.09991V3.41992H13.5298V9.63992H13.5498Z" fill="black"/>
<path d="M19.001 1.07031V3.42032H20.7012V4.81032H19.001V9.36032C19.001 10.4303 19.4214 10.7103 19.9014 10.7103C20.1314 10.7103 20.3112 10.6903 20.4912 10.6603L20.5312 12.1603C20.2413 12.2503 19.821 12.3103 19.271 12.3103C18.651 12.3103 18.1012 12.1603 17.7212 11.7703C17.3012 11.3403 17.0811 10.7003 17.0811 9.40031V4.84032H16.0312V3.45032H17.0811V1.59032L19.001 1.10031V1.07031Z" fill="black"/>
<path d="M29.1006 9.63992C29.1006 10.5899 29.1409 11.4399 29.1709 12.1899H27.5005L27.3906 11.2699H27.3506C27.0106 11.7899 26.3106 12.3299 25.3906 12.3299C23.7806 12.3299 23.1406 11.1199 23.1406 8.83992V3.41992H25.0605V8.59991C25.0605 9.84991 25.2908 10.7199 26.0708 10.7199C26.6608 10.7199 26.9608 10.2099 27.0508 9.85992C27.1208 9.65992 27.1606 9.38991 27.1606 9.09991V3.41992H29.0806V9.63992H29.1006Z" fill="black"/>
<path d="M32.2495 5.88953C32.2495 5.07953 32.2097 4.15953 32.1797 3.41953H33.8599L33.9595 4.73952H34.0195C34.3595 3.84952 35.0798 3.26953 35.7998 3.26953C35.9898 3.26953 36.0895 3.27953 36.2095 3.29953V5.21953C36.0895 5.19953 35.9698 5.19952 35.7998 5.19952C35.1298 5.19952 34.4698 5.75952 34.2598 6.69952C34.2098 6.90952 34.1797 7.20952 34.1797 7.53952V12.1695H32.2598V5.86952L32.2495 5.88953Z" fill="black"/>
<path d="M39.8896 8.31952C39.9096 10.2795 40.8198 10.8095 41.8398 10.8095C42.4798 10.8095 43.0197 10.6695 43.4097 10.4995L43.6797 11.8795C43.1297 12.1395 42.2897 12.2895 41.4897 12.2895C39.2297 12.2895 38.0195 10.6495 38.0195 7.93953C38.0195 5.03953 39.4098 3.26953 41.2798 3.26953C43.1498 3.26953 44.0498 4.93952 44.0498 7.28952C44.0498 7.78952 44.0295 8.08952 43.9995 8.31952H39.8896ZM42.2695 6.94952C42.2895 5.53952 41.8196 4.70952 41.1396 4.70952C40.3096 4.70952 39.9296 5.92952 39.8896 6.94952H42.2695Z" fill="black"/>
<path d="M52.5898 12.18L49.8496 0.0400391H51.9497L52.9595 5.49004C53.1995 6.82004 53.4997 8.42004 53.6797 9.90004H53.7295C53.8995 8.40004 54.1597 6.85005 54.4097 5.44005L55.3896 0.0400391H57.4795L54.6895 12.18H52.5898Z" fill="black"/>
<path d="M61.5212 1.12C61.5312 1.78 61.0911 2.23 60.4611 2.23C59.9011 2.23 59.4511 1.78 59.4611 1.12C59.4511 0.439995 59.9214 0 60.4914 0C61.0914 0 61.5314 0.429995 61.5314 1.12H61.5212ZM59.5412 12.18V3.41H61.4611V12.18H59.5412Z" fill="black"/>
<path d="M64.5796 5.88953C64.5796 4.89953 64.5398 4.19953 64.5098 3.41953H66.1797L66.2798 4.44952H66.3198C66.7398 3.74952 67.4696 3.26953 68.3896 3.26953C69.8496 3.26953 70.6299 4.39953 70.6299 6.43953V12.1795H68.7095V6.61952C68.7095 5.73952 68.5195 4.88953 67.6895 4.88953C67.2095 4.88953 66.7896 5.25952 66.6196 5.95952C66.5596 6.14952 66.5195 6.43952 66.5195 6.75952V12.1795H64.5996V5.87952L64.5796 5.88953Z" fill="black"/>
<path d="M75.9702 1.07031V3.42032H77.6704V4.81032H75.9702V9.36032C75.9702 10.4303 76.3901 10.7103 76.8701 10.7103C77.1001 10.7103 77.28 10.6903 77.46 10.6603L77.5 12.1603C77.21 12.2503 76.7902 12.3103 76.2402 12.3103C75.6202 12.3103 75.0699 12.1603 74.6899 11.7703C74.2699 11.3403 74.0503 10.7003 74.0503 9.40031V4.84032H73V3.45032H74.0503V1.59032L75.9702 1.10031V1.07031Z" fill="black"/>
<path d="M83.8999 12.18L83.7896 11.29H83.7495C83.3095 11.97 82.6596 12.33 81.8896 12.33C80.6296 12.33 79.6797 11.28 79.6797 9.74004C79.6797 7.49004 81.5798 6.54005 83.5698 6.52005V6.29004C83.5698 5.38004 83.2098 4.74004 82.2598 4.74004C81.6298 4.74004 81.0999 4.92004 80.6299 5.23004L80.2598 3.92004C80.6898 3.65004 81.6097 3.29004 82.6797 3.29004C84.9397 3.29004 85.5098 4.83004 85.5098 6.70004V10.2C85.5098 10.88 85.5296 11.61 85.6196 12.2H83.8999V12.18ZM83.6196 7.80005C82.8696 7.81005 81.5195 8.02004 81.5195 9.54004C81.5195 10.53 82.0497 10.89 82.4697 10.89C82.9497 10.89 83.4196 10.56 83.5796 9.89005C83.6196 9.75005 83.6299 9.60005 83.6299 9.44005V7.80005H83.6196Z" fill="black"/>
<path d="M94.6304 3.42004C94.5904 4.13004 94.5503 4.99004 94.5503 6.18004V11.14C94.5503 13.22 94.2301 14.18 93.5801 14.84C92.9901 15.45 92.11 15.79 90.96 15.79C90.18 15.79 89.4401 15.63 88.8901 15.37L89.2803 13.88C89.6803 14.07 90.2399 14.26 90.9399 14.26C92.0899 14.26 92.6504 13.52 92.6504 11.89V11.2H92.6104C92.3104 11.81 91.6802 12.16 90.9902 12.16C89.2102 12.16 88.3301 10.19 88.3301 7.88004C88.3301 4.82004 89.7202 3.29004 91.2002 3.29004C92.0002 3.29004 92.5103 3.77004 92.8203 4.37004H92.8604L92.96 3.44005H94.6504L94.6304 3.42004ZM92.6401 6.54004C92.6401 6.31004 92.6101 6.08004 92.5601 5.90004C92.4301 5.43004 92.1501 4.90004 91.5801 4.90004C90.6701 4.90004 90.2402 6.14005 90.2402 7.80005C90.2402 9.71005 90.8101 10.62 91.5601 10.62C91.9201 10.62 92.3303 10.44 92.5503 9.71004C92.6303 9.48004 92.6504 9.22004 92.6504 8.98004V6.55005L92.6401 6.54004Z" fill="black"/>
<path d="M99.1807 8.31952C99.2007 10.2795 100.111 10.8095 101.131 10.8095C101.771 10.8095 102.311 10.6695 102.701 10.4995L102.971 11.8795C102.421 12.1395 101.581 12.2895 100.781 12.2895C98.5208 12.2895 97.3105 10.6495 97.3105 7.93953C97.3105 5.03953 98.7008 3.26953 100.571 3.26953C102.441 3.26953 103.341 4.93952 103.341 7.28952C103.341 7.78952 103.321 8.08952 103.291 8.31952H99.1807ZM101.561 6.94952C101.581 5.53952 101.111 4.70952 100.431 4.70952C99.6007 4.70952 99.2207 5.92952 99.1807 6.94952H101.561Z" fill="black"/>
</svg>
