<svg width="104" height="16" viewBox="0 0 104 16" fill="none" xmlns="http://www.w3.org/2000/svg">
<path d="M0 0.0498047H4.98001V1.7198H1.92V5.34979H4.79001V6.95979H1.92V12.1898H0V0.0498047Z" fill="#EFEFEF"/>
<path d="M13.5537 9.63992C13.5537 10.5899 13.5937 11.4399 13.6237 12.1899H11.9538L11.8438 11.2699H11.8037C11.4637 11.7899 10.7638 12.3299 9.84375 12.3299C8.23375 12.3299 7.59375 11.1199 7.59375 8.83992V3.41992H9.51375V8.59991C9.51375 9.84991 9.74374 10.7199 10.5237 10.7199C11.1137 10.7199 11.4137 10.2099 11.5037 9.85992C11.5737 9.65992 11.6137 9.38991 11.6137 9.09991V3.41992H13.5337V9.63992H13.5537Z" fill="#EFEFEF"/>
<path d="M19.0013 1.07031V3.42032H20.7013V4.81032H19.0013V9.36032C19.0013 10.4303 19.4213 10.7103 19.9013 10.7103C20.1313 10.7103 20.3113 10.6903 20.4913 10.6603L20.5312 12.1603C20.2413 12.2503 19.8213 12.3103 19.2713 12.3103C18.6513 12.3103 18.1013 12.1603 17.7213 11.7703C17.3013 11.3403 17.0813 10.7003 17.0813 9.40031V4.84032H16.0312V3.45032H17.0813V1.59032L19.0013 1.10031V1.07031Z" fill="#EFEFEF"/>
<path d="M29.1006 9.63992C29.1006 10.5899 29.1406 11.4399 29.1706 12.1899H27.5006L27.3906 11.2699H27.3506C27.0106 11.7899 26.3106 12.3299 25.3906 12.3299C23.7806 12.3299 23.1406 11.1199 23.1406 8.83992V3.41992H25.0606V8.59991C25.0606 9.84991 25.2906 10.7199 26.0706 10.7199C26.6606 10.7199 26.9606 10.2099 27.0506 9.85992C27.1206 9.65992 27.1606 9.38991 27.1606 9.09991V3.41992H29.0806V9.63992H29.1006Z" fill="#EFEFEF"/>
<path d="M32.2497 5.88953C32.2497 5.07953 32.2097 4.15953 32.1797 3.41953H33.8597L33.9597 4.73952H34.0197C34.3597 3.84952 35.0797 3.26953 35.7997 3.26953C35.9897 3.26953 36.0897 3.27953 36.2097 3.29953V5.21953C36.0897 5.19953 35.9697 5.19952 35.7997 5.19952C35.1297 5.19952 34.4697 5.75952 34.2597 6.69952C34.2097 6.90952 34.1797 7.20952 34.1797 7.53952V12.1695H32.2597V5.86952L32.2497 5.88953Z" fill="#EFEFEF"/>
<path d="M39.8934 8.31952C39.9134 10.2795 40.8234 10.8095 41.8434 10.8095C42.4834 10.8095 43.0235 10.6695 43.4135 10.4995L43.6834 11.8795C43.1334 12.1395 42.2934 12.2895 41.4934 12.2895C39.2334 12.2895 38.0234 10.6495 38.0234 7.93953C38.0234 5.03953 39.4134 3.26953 41.2834 3.26953C43.1534 3.26953 44.0534 4.93952 44.0534 7.28952C44.0534 7.78952 44.0334 8.08952 44.0034 8.31952H39.8934ZM42.2734 6.94952C42.2934 5.53952 41.8234 4.70952 41.1434 4.70952C40.3134 4.70952 39.9334 5.92952 39.8934 6.94952H42.2734Z" fill="#EFEFEF"/>
<path d="M52.5916 12.18L49.8516 0.0400391H51.9516L52.9616 5.49004C53.2016 6.82004 53.5016 8.42004 53.6816 9.90004H53.7316C53.9016 8.40004 54.1616 6.85005 54.4116 5.44005L55.3916 0.0400391H57.4816L54.6916 12.18H52.5916Z" fill="#EFEFEF"/>
<path d="M61.5211 1.12C61.5311 1.78 61.0911 2.23 60.4611 2.23C59.9011 2.23 59.4511 1.78 59.4611 1.12C59.4511 0.439995 59.9211 0 60.4911 0C61.0911 0 61.5311 0.429995 61.5311 1.12H61.5211ZM59.5411 12.18V3.41H61.4611V12.18H59.5411Z" fill="#EFEFEF"/>
<path d="M64.5778 5.88953C64.5778 4.89953 64.5378 4.19953 64.5078 3.41953H66.1778L66.2778 4.44952H66.3178C66.7378 3.74952 67.4678 3.26953 68.3878 3.26953C69.8478 3.26953 70.6278 4.39953 70.6278 6.43953V12.1795H68.7078V6.61952C68.7078 5.73952 68.5178 4.88953 67.6878 4.88953C67.2078 4.88953 66.7878 5.25952 66.6178 5.95952C66.5578 6.14952 66.5178 6.43952 66.5178 6.75952V12.1795H64.5978V5.87952L64.5778 5.88953Z" fill="#EFEFEF"/>
<path d="M75.97 1.07031V3.42032H77.67V4.81032H75.97V9.36032C75.97 10.4303 76.39 10.7103 76.87 10.7103C77.1 10.7103 77.28 10.6903 77.46 10.6603L77.5 12.1603C77.21 12.2503 76.79 12.3103 76.24 12.3103C75.62 12.3103 75.07 12.1603 74.69 11.7703C74.27 11.3403 74.05 10.7003 74.05 9.40031V4.84032H73V3.45032H74.05V1.59032L75.97 1.10031V1.07031Z" fill="#EFEFEF"/>
<path d="M83.8997 12.18L83.7897 11.29H83.7497C83.3097 11.97 82.6597 12.33 81.8897 12.33C80.6297 12.33 79.6797 11.28 79.6797 9.74004C79.6797 7.49004 81.5797 6.54005 83.5697 6.52005V6.29004C83.5697 5.38004 83.2097 4.74004 82.2597 4.74004C81.6297 4.74004 81.0997 4.92004 80.6297 5.23004L80.2597 3.92004C80.6897 3.65004 81.6097 3.29004 82.6797 3.29004C84.9397 3.29004 85.5097 4.83004 85.5097 6.70004V10.2C85.5097 10.88 85.5297 11.61 85.6197 12.2H83.8997V12.18ZM83.6197 7.80005C82.8697 7.81005 81.5197 8.02004 81.5197 9.54004C81.5197 10.53 82.0497 10.89 82.4697 10.89C82.9497 10.89 83.4197 10.56 83.5797 9.89005C83.6197 9.75005 83.6297 9.60005 83.6297 9.44005V7.80005H83.6197Z" fill="#EFEFEF"/>
<path d="M94.6281 3.42004C94.5881 4.13004 94.5481 4.99004 94.5481 6.18004V11.14C94.5481 13.22 94.2281 14.18 93.5781 14.84C92.9881 15.45 92.1081 15.79 90.9581 15.79C90.1781 15.79 89.4381 15.63 88.8881 15.37L89.2781 13.88C89.6781 14.07 90.2381 14.26 90.9381 14.26C92.0881 14.26 92.6481 13.52 92.6481 11.89V11.2H92.6081C92.3081 11.81 91.6781 12.16 90.9881 12.16C89.2081 12.16 88.3281 10.19 88.3281 7.88004C88.3281 4.82004 89.7181 3.29004 91.1981 3.29004C91.9981 3.29004 92.5081 3.77004 92.8181 4.37004H92.8581L92.9581 3.44005H94.6481L94.6281 3.42004ZM92.6381 6.54004C92.6381 6.31004 92.6081 6.08004 92.5581 5.90004C92.4281 5.43004 92.1481 4.90004 91.5781 4.90004C90.6681 4.90004 90.2381 6.14005 90.2381 7.80005C90.2381 9.71005 90.8081 10.62 91.5581 10.62C91.9181 10.62 92.3281 10.44 92.5481 9.71004C92.6281 9.48004 92.6481 9.22004 92.6481 8.98004V6.55005L92.6381 6.54004Z" fill="#EFEFEF"/>
<path d="M99.1825 8.31952C99.2025 10.2795 100.113 10.8095 101.133 10.8095C101.773 10.8095 102.312 10.6695 102.702 10.4995L102.973 11.8795C102.423 12.1395 101.583 12.2895 100.783 12.2895C98.5225 12.2895 97.3125 10.6495 97.3125 7.93953C97.3125 5.03953 98.7025 3.26953 100.572 3.26953C102.442 3.26953 103.342 4.93952 103.342 7.28952C103.342 7.78952 103.322 8.08952 103.292 8.31952H99.1825ZM101.562 6.94952C101.582 5.53952 101.112 4.70952 100.432 4.70952C99.6025 4.70952 99.2225 5.92952 99.1825 6.94952H101.562Z" fill="#EFEFEF"/>
</svg>
