<svg width="16" height="16" viewBox="0 0 16 16" fill="none" xmlns="http://www.w3.org/2000/svg">
<path d="M15.0011 15.6711L9.02113 9.69111C8.53113 10.1011 7.9711 10.4111 7.3711 10.6211C6.7711 10.8411 6.14111 10.9511 5.50111 10.9611C4.03111 10.9911 2.62111 10.4211 1.59111 9.37112C0.551105 8.35112 -0.0288912 6.94112 0.0011088 5.48112C-0.0288912 2.48112 2.39112 0.0311088 5.39112 0.00110878C5.42112 0.00110878 5.45112 0.00110878 5.48112 0.00110878C6.94112 -0.0288912 8.35111 0.55112 9.38111 1.59112C10.4311 2.61112 11.0111 4.02112 10.9811 5.48112C10.9811 6.14112 10.8611 6.80112 10.6211 7.42112C10.4111 8.00112 10.0911 8.53111 9.69111 9.00111L15.7011 15.0111L15.0111 15.6811L15.0011 15.6711ZM5.50111 10.0011C7.97111 10.0311 10.0011 8.05111 10.0211 5.58111C10.0211 5.55111 10.0211 5.51112 10.0211 5.48112C10.0511 3.01112 8.07111 0.981115 5.60111 0.961115C5.57111 0.961115 5.53111 0.961115 5.50111 0.961115C4.29111 0.931115 3.12113 1.40112 2.27113 2.26112C1.40113 3.10112 0.931121 4.27112 0.951121 5.48112C0.921121 6.69112 1.40113 7.86112 2.27113 8.70112C3.12113 9.56112 4.29111 10.0311 5.50111 10.0011Z" fill="#EFEFEF"/>
</svg>
