<svg width="14" height="10" viewBox="0 0 14 10" fill="none" xmlns="http://www.w3.org/2000/svg">
<path d="M8.74219 4.66052C8.74219 3.48052 7.78217 2.52051 6.60217 2.52051C6.48217 2.52051 6.36219 2.54052 6.24219 2.56052L8.71228 5.03052C8.73228 4.91052 8.7522 4.79053 8.7522 4.67053L8.74219 4.66052Z" fill="#4B4B4B"/>
<path d="M4.46094 4.66055C4.46094 5.84055 5.42083 6.80057 6.60083 6.80057C7.00083 6.80057 7.37093 6.68054 7.70093 6.49054L4.77087 3.56055C4.58087 3.88055 4.46094 4.25055 4.46094 4.66055Z" fill="#4B4B4B"/>
<path d="M6.64722 0.700439C6.64722 0.700439 6.61718 0.700439 6.60718 0.700439C6.60718 0.700439 6.59728 0.700439 6.58728 0.700439C6.57728 0.700439 6.55724 0.700439 6.54724 0.700439C5.86724 0.700439 5.22719 0.800439 4.61719 0.950439L5.54724 1.88043C5.85724 1.76043 6.19724 1.69042 6.54724 1.68042C6.56724 1.68042 6.58718 1.68042 6.60718 1.68042C8.24718 1.68042 9.56726 3.02043 9.56726 4.66043C9.56726 5.03043 9.48719 5.38044 9.36719 5.70044L10.0972 6.43042C10.3672 5.89042 10.5372 5.30042 10.5372 4.65042C10.5372 3.81042 10.2673 3.03043 9.81726 2.38043C11.4673 3.19043 12.2773 4.44042 12.3073 4.74042C12.2373 5.02042 11.4372 5.86042 10.2372 6.56042L10.9473 7.27042C12.3373 6.43042 13.2872 5.39043 13.2872 4.75043C13.2872 3.74043 10.9272 0.69043 6.63721 0.69043L6.64722 0.700439Z" fill="#4B4B4B"/>
<path d="M6.59998 7.64014C4.95998 7.64014 3.62 6.30013 3.62 4.66013C3.62 4.03013 3.82003 3.44011 4.16003 2.96011L2.82007 1.62012C1.08007 2.50012 0 3.82013 0 4.66013C0 5.50013 1.10003 6.56011 2.03003 7.18011C2.84003 7.71011 4.50009 8.61014 6.59009 8.61014C7.51009 8.61014 8.43004 8.40012 9.29004 8.09012L8.29004 7.09012C7.81004 7.43012 7.22009 7.63013 6.59009 7.63013L6.59998 7.64014ZM3.26001 6.77011C1.87001 6.03011 0.97998 5.03014 0.97998 4.67014C0.97998 4.31014 1.83005 3.24011 3.30005 2.49011C2.89005 3.12011 2.64001 3.86014 2.64001 4.67014C2.64001 5.48014 2.87001 6.17012 3.26001 6.78012V6.77011Z" fill="#4B4B4B"/>
<path d="M2.72656 0.700195L10.6366 8.62018" stroke="#4B4B4B" stroke-width="1.4" stroke-miterlimit="10" stroke-linecap="round"/>
</svg>
