<svg width="14" height="8" viewBox="0 0 14 8" fill="none" xmlns="http://www.w3.org/2000/svg">
<path d="M6.58997 7.91977C4.49997 7.91977 2.83003 7.01978 2.03003 6.48978C1.09003 5.86978 0 4.82979 0 3.96979C0 2.60979 2.81002 0.00976562 6.65002 0.00976562C10.94 0.00976562 13.3 3.05976 13.3 4.06976C13.3 5.27976 9.92997 7.91977 6.58997 7.91977ZM6.64001 0.979767C3.16001 0.979767 0.960083 3.36978 0.960083 3.95978C0.960083 4.54978 3.42008 6.93979 6.58008 6.93979C9.74008 6.93979 12.1801 4.56977 12.3101 4.04977C12.2601 3.59977 10.45 0.969788 6.63 0.969788L6.64001 0.979767Z" fill="#4B4B4B"/>
<path d="M6.59302 6.10031C7.77491 6.10031 8.73303 5.14222 8.73303 3.96033C8.73303 2.77844 7.77491 1.82031 6.59302 1.82031C5.41113 1.82031 4.45312 2.77844 4.45312 3.96033C4.45312 5.14222 5.41113 6.10031 6.59302 6.10031Z" fill="#4B4B4B"/>
<path d="M6.59277 7.91998C4.41277 7.91998 2.63281 6.13999 2.63281 3.95999C2.63281 1.77999 4.41277 0 6.59277 0C8.77277 0 10.5529 1.77999 10.5529 3.95999C10.5529 6.13999 8.77277 7.91998 6.59277 7.91998ZM6.59277 0.97998C4.95277 0.97998 3.61279 2.31999 3.61279 3.95999C3.61279 5.59999 4.95277 6.94 6.59277 6.94C8.23277 6.94 9.57288 5.59999 9.57288 3.95999C9.57288 2.31999 8.23277 0.97998 6.59277 0.97998Z" fill="#4B4B4B"/>
</svg>
