<svg width="70" height="70" viewBox="0 0 70 70" fill="none" xmlns="http://www.w3.org/2000/svg">
<path d="M34.98 69.96C54.2989 69.96 69.96 54.2989 69.96 34.98C69.96 15.6611 54.2989 0 34.98 0C15.6611 0 0 15.6611 0 34.98C0 54.2989 15.6611 69.96 34.98 69.96Z" fill="#A3A3A3"/>
<path d="M34.9756 32.3097C40.1956 32.3097 44.4355 28.0796 44.4355 22.8496C44.4355 17.6196 40.2056 13.3896 34.9756 13.3896C29.7456 13.3896 25.5156 17.6196 25.5156 22.8496C25.5156 28.0796 29.7456 32.3097 34.9756 32.3097Z" fill="#EDEDED"/>
<path d="M41.5088 37.1494H28.4487C25.0187 37.1494 22.2188 38.8294 22.2188 43.3794C22.2188 47.9294 24.1388 54.1293 25.3888 58.3293C26.6488 62.5293 28.1888 64.5594 31.6188 64.5594H38.3387C41.7687 64.5594 43.3787 62.7093 44.5687 58.3293C45.7587 53.9393 47.7388 47.4194 47.7388 43.3794C47.7388 39.3394 44.9388 37.1494 41.5088 37.1494Z" fill="#EDEDED"/>
</svg>
