<svg width="47" height="46" viewBox="0 0 47 46" fill="none" xmlns="http://www.w3.org/2000/svg">
<path d="M41.58 8.33997L27.25 0.97998C25.98 0.32998 24.59 0 23.2 0C21.81 0 20.4199 0.32998 19.1499 0.97998L4.81995 8.33997C1.85995 9.85997 0 12.9 0 16.23V29.48C0 32.8 1.85995 35.85 4.81995 37.37L19.1499 44.73C20.4199 45.38 21.81 45.71 23.2 45.71C24.59 45.71 25.98 45.38 27.25 44.73L41.58 37.37C44.54 35.85 46.3999 32.81 46.3999 29.48V16.23C46.3999 12.91 44.54 9.85997 41.58 8.33997ZM6.02991 10.71L20.36 3.34998C21.25 2.88998 22.22 2.66003 23.2 2.66003C24.18 2.66003 25.1499 2.88998 26.0399 3.34998L31.61 6.20996L11.85 16.36L4.02991 12.35C4.56991 11.68 5.23991 11.12 6.02991 10.71ZM22.3099 42.98C21.6399 42.88 20.98 42.68 20.36 42.37L6.02991 35.01C3.95991 33.95 2.65991 31.81 2.65991 29.49V16.24C2.65991 15.42 2.82988 14.62 3.12988 13.89L22.3099 23.74V42.99V42.98ZM13.2899 17.11L33.0499 6.95996L40.35 10.71C41.14 11.12 41.82 11.68 42.35 12.35L23.1799 22.1899L13.2799 17.1L13.2899 17.11ZM43.73 29.48C43.73 31.81 42.43 33.94 40.36 35L26.0299 42.36C25.4099 42.68 24.75 42.88 24.08 42.97V23.72L43.2599 13.87C43.5599 14.61 43.73 15.4 43.73 16.22V29.47V29.48Z" fill="#A5A5A5"/>
<path d="M8.15869 22.6498L14.3688 25.5798C15.1688 25.9598 15.8087 25.6198 15.8087 24.8198C15.8087 24.0198 15.1688 23.0698 14.3688 22.6998L8.15869 19.7698C7.35869 19.3898 6.71875 19.7298 6.71875 20.5298C6.71875 21.3298 7.35869 22.2798 8.15869 22.6498Z" fill="#A5A5A5"/>
</svg>
