<svg width="15" height="12" viewBox="0 0 15 12" fill="none" xmlns="http://www.w3.org/2000/svg">
<path d="M7.27783 4.78027C6.29783 4.78027 5.50781 5.58028 5.50781 6.57028C5.50781 7.56028 6.29783 8.36026 7.27783 8.36026C8.25783 8.36026 9.04785 7.56028 9.04785 6.57028C9.04785 5.58028 8.25783 4.78027 7.27783 4.78027Z" fill="#D8D8D8"/>
<path d="M13.63 2.23999H11.96C11.59 2.23999 11.25 2.01999 11.1 1.67999L10.6 0.559998C10.45 0.219998 10.11 0 9.73999 0H4.83997C4.46997 0 4.12998 0.219998 3.97998 0.559998L3.47998 1.67999C3.32998 2.01999 2.99 2.23999 2.62 2.23999H0.949951C0.429951 2.23999 0 2.67001 0 3.20001V10.39C0 10.92 0.419951 11.35 0.949951 11.35H13.65C14.17 11.35 14.6 10.92 14.6 10.39V3.20001C14.6 2.67001 14.18 2.23999 13.65 2.23999H13.63ZM7.27997 9.88C5.45997 9.88 3.98999 8.40001 3.98999 6.57001C3.98999 4.74001 5.45997 3.25 7.27997 3.25C9.09997 3.25 10.57 4.73001 10.57 6.57001C10.57 8.41001 9.09997 9.88 7.27997 9.88Z" fill="#D8D8D8"/>
</svg>
