<svg width="13" height="14" viewBox="0 0 13 14" fill="none" xmlns="http://www.w3.org/2000/svg">
<path d="M12.8775 2.57333C12.8275 2.34333 12.7675 2.2333 12.7675 2.2333C12.7475 2.1733 12.6975 2.12331 12.6375 2.11331C12.5775 2.10331 12.5075 2.13332 12.4775 2.18332L12.3074 2.42331L11.3575 3.75332C11.1775 4.01332 10.7975 4.0533 10.5175 3.8533L8.9174 2.70334C8.6374 2.50334 8.55748 2.13332 8.74748 1.87332L9.71745 0.503324L9.87748 0.283292C9.91748 0.233292 9.91749 0.163299 9.88749 0.103299C9.85749 0.0432992 9.79747 0.0133333 9.73747 0.0133333C9.73747 0.0133333 9.58745 -0.0166667 9.34745 0.0133333C8.73745 0.0933333 8.14751 0.343282 7.65751 0.773282C6.95751 1.38328 6.58742 2.23329 6.56742 3.09329C6.56742 3.35329 6.79742 4.48329 6.18742 5.09329C5.57742 5.70329 0.3975 10.8833 0.3975 10.8833C-0.1325 11.4133 -0.1325 12.2633 0.3975 12.7833C0.9275 13.3133 1.7774 13.3133 2.2974 12.7833C2.2974 12.7833 7.60744 7.47331 8.08744 6.99331C8.56744 6.51331 9.91742 6.36333 10.1874 6.32333C10.7874 6.24333 11.3675 5.99332 11.8575 5.56332C12.7475 4.78332 13.0975 3.6233 12.8875 2.5433L12.8775 2.57333ZM0.90751 12.3033C0.65751 12.0533 0.65751 11.6433 0.90751 11.3933C1.15751 11.1433 1.56742 11.1433 1.81742 11.3933C2.06742 11.6433 2.06742 12.0533 1.81742 12.3033C1.56742 12.5533 1.15751 12.5533 0.90751 12.3033Z" fill="#D8D8D8"/>
</svg>
