<svg width="29" height="24" viewBox="0 0 29 24" fill="none" xmlns="http://www.w3.org/2000/svg">
<path d="M27.1802 5.20007H21.1499L20.21 0.98999C20.08 0.40999 19.5702 0 18.9702 0H9.49023C8.90023 0 8.38 0.40999 8.25 0.98999L7.31006 5.20007H1.27002C0.57002 5.20007 0 5.77009 0 6.47009V22.7201C0 23.4201 0.57002 23.99 1.27002 23.99H27.1899C27.8899 23.99 28.46 23.4201 28.46 22.7201V6.47009C28.46 5.77009 27.8899 5.20007 27.1899 5.20007H27.1802ZM7.22998 14.6901C7.22998 10.8201 10.36 7.69006 14.23 7.69006C18.1 7.69006 21.23 10.8301 21.23 14.6901C21.23 18.5501 18.1 21.6901 14.23 21.6901C10.36 21.6901 7.22998 18.5601 7.22998 14.6901ZM10.3203 5.2301L10.6201 3.46008H17.8403L18.1001 4.98999L18.1401 5.2301H10.3301H10.3203ZM23.6401 20.78C22.9801 20.78 22.4399 20.2401 22.4399 19.5801C22.4399 18.9201 22.9801 18.38 23.6401 18.38C24.3001 18.38 24.8403 18.9201 24.8403 19.5801C24.8403 20.2401 24.3001 20.78 23.6401 20.78Z" fill="white"/>
<path d="M14.2295 19.2496C16.7495 19.2496 18.7896 17.2097 18.7896 14.6897C18.7896 13.9597 18.6198 13.2797 18.3198 12.6697V12.6497L15.2197 14.0897C14.8897 14.2497 14.5397 13.8997 14.6997 13.5697L16.0996 10.5697V10.5497H16.1099C15.5399 10.2797 14.8997 10.1396 14.2397 10.1396C11.7197 10.1396 9.67969 12.1797 9.67969 14.6997C9.67969 17.2197 11.7197 19.2596 14.2397 19.2596L14.2295 19.2496Z" fill="white"/>
</svg>
