<svg width="17" height="32" viewBox="0 0 17 32" fill="none" xmlns="http://www.w3.org/2000/svg">
<path d="M8.03027 11.42C10.9103 11.42 13.2402 9.08996 13.2402 6.20996C13.2402 3.32996 10.9103 1 8.03027 1C5.15027 1 2.82031 3.32996 2.82031 6.20996C2.82031 9.08996 5.15027 11.42 8.03027 11.42Z" stroke="white" stroke-width="2" stroke-miterlimit="10"/>
<path d="M11.6299 15.2695H4.42969C2.53969 15.2695 1 16.1995 1 18.6995C1 21.1995 2.06 24.6194 2.75 26.9294C3.44 29.2394 4.28969 30.3595 6.17969 30.3595H9.87988C11.7699 30.3595 12.6601 29.3394 13.3101 26.9294C13.9701 24.5094 15.0601 20.9195 15.0601 18.6995C15.0601 16.4795 13.5099 15.2695 11.6299 15.2695Z" stroke="white" stroke-width="2" stroke-miterlimit="10"/>
</svg>
