<svg width="11" height="11" viewBox="0 0 11 11" fill="none" xmlns="http://www.w3.org/2000/svg">
<path d="M3.28 9.11714C3.28 9.11714 3.30001 9.09715 3.32001 9.07715L7.17001 5.22714L7.20999 5.18715C7.20999 5.18715 7.23 5.16714 7.25 5.14714L9.29001 3.10715L7.01001 0.827148L4.97 2.86714L4.92999 2.90715C4.92999 2.90715 4.91001 2.92714 4.89001 2.94714L1 6.83714L0 10.1171L3.23001 9.13715L3.28 9.12715V9.11714ZM0.730011 9.38715L1.23001 7.74715L2.37 8.88715L0.730011 9.38715Z" fill="#DBDBDB"/>
<path d="M9.94156 2.0575C10.1916 1.8075 10.1916 1.3875 9.94156 1.1375L8.99155 0.1875C8.74155 -0.0625 8.32156 -0.0625 8.07156 0.1875L7.60156 0.657501L9.47156 2.5275L9.94156 2.0575Z" fill="#2B2B2B"/>
</svg>
