<svg width="11" height="14" viewBox="0 0 11 14" fill="none" xmlns="http://www.w3.org/2000/svg">
<path d="M0.742188 12.6204C0.782188 13.3504 1.41218 13.9403 2.14218 13.9403H8.08218C8.81218 13.9403 9.44221 13.3404 9.48221 12.6204L9.96219 4.28027H0.242188L0.722198 12.6204H0.742188Z" fill="#A5A5A5"/>
<path d="M9.98001 2.19995C9.83001 2.13995 8.54001 1.66999 6.60001 1.48999C6.60001 1.48999 6.60001 1.46996 6.60001 1.45996C6.60001 0.649961 5.94998 0 5.13998 0C4.32998 0 3.67999 0.649961 3.67999 1.45996C3.67999 1.45996 3.67999 1.47999 3.67999 1.48999C1.73999 1.66999 0.449988 2.13995 0.299988 2.19995C0.0399878 2.30995 0 2.45993 0 2.67993V3.63989H10.27V2.67993C10.27 2.45993 10.23 2.30995 9.97 2.19995H9.98001ZM5.13998 1.41992C4.91998 1.41992 4.71001 1.41993 4.51001 1.42993C4.53001 1.08993 4.79998 0.829956 5.13998 0.829956C5.47998 0.829956 5.74999 1.09993 5.76999 1.42993C5.55999 1.42993 5.35998 1.41992 5.13998 1.41992Z" fill="#A5A5A5"/>
</svg>
