<svg width="12" height="12" viewBox="0 0 12 12" fill="none" xmlns="http://www.w3.org/2000/svg">
<path d="M11.1507 11.6407L6.71067 7.20066C6.35067 7.50067 5.93068 7.74067 5.48068 7.89067C5.04068 8.05067 4.57068 8.14067 4.09068 8.14067C3.00068 8.16067 1.95068 7.74066 1.18068 6.96066C0.400676 6.20066 -0.0193172 5.16066 0.000682771 4.07066C-0.0193172 1.84066 1.77068 0.0206679 4.00068 0.000667889C4.02068 0.000667889 4.05067 0.000667889 4.07067 0.000667889C5.16067 -0.0193321 6.21068 0.410661 6.97068 1.18066C7.75068 1.94066 8.18069 2.98066 8.16069 4.07066C8.16069 4.56066 8.07068 5.05066 7.89068 5.51066C7.73068 5.94066 7.50068 6.34066 7.20068 6.68066L11.6607 11.1407L11.1407 11.6407H11.1507ZM4.09068 7.43066C5.93068 7.45066 7.43068 5.98067 7.45068 4.14067C7.45068 4.12067 7.45068 4.09066 7.45068 4.07066C7.47068 2.23066 6.00069 0.730659 4.16069 0.710659C4.14069 0.710659 4.11068 0.710659 4.09068 0.710659C3.19068 0.690659 2.32069 1.04066 1.69069 1.68066C1.05069 2.31066 0.690674 3.17066 0.710674 4.07066C0.690674 4.97066 1.04069 5.83066 1.69069 6.46066C2.32069 7.10066 3.19068 7.45066 4.09068 7.43066Z" fill="#DBDBDB"/>
</svg>
