<svg width="70" height="70" viewBox="0 0 70 70" fill="none" xmlns="http://www.w3.org/2000/svg">
<path d="M34.98 69.96C54.2989 69.96 69.96 54.2989 69.96 34.98C69.96 15.6611 54.2989 0 34.98 0C15.6611 0 0 15.6611 0 34.98C0 54.2989 15.6611 69.96 34.98 69.96Z" fill="#A3A3A3"/>
<path d="M34.9756 32.3204C40.1956 32.3204 44.4357 28.0904 44.4357 22.8604C44.4357 17.6304 40.2056 13.4004 34.9756 13.4004C29.7456 13.4004 25.5156 17.6304 25.5156 22.8604C25.5156 28.0904 29.7456 32.3204 34.9756 32.3204Z" fill="#EDEDED"/>
<path d="M41.5087 37.1602H28.4487C25.0187 37.1602 22.2188 38.8402 22.2188 43.3902C22.2188 47.9402 24.1387 54.1402 25.3887 58.3402C26.6487 62.5402 28.1888 64.5702 31.6188 64.5702H38.3387C41.7687 64.5702 43.3787 62.7202 44.5687 58.3402C45.7587 53.9502 47.7388 47.4302 47.7388 43.3902C47.7388 39.3502 44.9387 37.1602 41.5087 37.1602Z" fill="#EDEDED"/>
</svg>
