<svg width="15" height="12" viewBox="0 0 15 12" fill="none" xmlns="http://www.w3.org/2000/svg">
<path d="M7.27783 4.77979C6.29783 4.77979 5.50781 5.57976 5.50781 6.56976C5.50781 7.55976 6.29783 8.35977 7.27783 8.35977C8.25783 8.35977 9.04785 7.55976 9.04785 6.56976C9.04785 5.57976 8.25783 4.77979 7.27783 4.77979Z" fill="#CC5252"/>
<path d="M13.63 2.23999H11.9601C11.5901 2.23999 11.2501 2.01999 11.1001 1.67999L10.6001 0.559998C10.4501 0.219998 10.11 0 9.73999 0H4.84009C4.47009 0 4.1301 0.219998 3.9801 0.559998L3.4801 1.67999C3.3301 2.01999 2.99 2.23999 2.62 2.23999H0.950073C0.430073 2.23999 0 2.66998 0 3.19998V10.39C0 10.92 0.420073 11.35 0.950073 11.35H13.65C14.17 11.35 14.6001 10.92 14.6001 10.39V3.19998C14.6001 2.66998 14.18 2.23999 13.65 2.23999H13.63ZM7.28003 9.87997C5.46003 9.87997 3.98999 8.39998 3.98999 6.56998C3.98999 4.73998 5.46003 3.25 7.28003 3.25C9.10003 3.25 10.5701 4.72998 10.5701 6.56998C10.5701 8.40998 9.10003 9.87997 7.28003 9.87997Z" fill="#CC5252"/>
</svg>
